HIERARCHY
ROOT Hips
{
	OFFSET 0.000000 83.214638 0.000000
	CHANNELS 6 Xposition Yposition Zposition Xrotation Yrotation Zrotation
	JOINT Pelvis
	{
		OFFSET 0.000000 0.000000 0.000000
		CHANNELS 3 Xrotation Yrotation Zrotation
		JOINT LeftUpLeg
		{
			OFFSET 8.479700 -4.795502 -0.379100
			CHANNELS 3 Xrotation Yrotation Zrotation
			JOINT LeftLeg
			{
				OFFSET 0.024144 -32.555107 0.112900
				CHANNELS 3 Xrotation Yrotation Zrotation
				JOINT LeftFoot
				{
					OFFSET -0.024144 -32.638630 -3.012600
					CHANNELS 3 Xrotation Yrotation Zrotation
					JOINT LeftToeBase
					{
						OFFSET 0.970200 -13.225400 11.864200
						CHANNELS 3 Xrotation Yrotation Zrotation
						End Site
						{
							OFFSET 0.000000 12.319262 0.000000
						}
					}
					JOINT LFootTongue
					{
						OFFSET 1.142400 -1.059800 6.665200
						CHANNELS 3 Xrotation Yrotation Zrotation
						End Site
						{
							OFFSET 0.000000 12.319262 0.000000
						}
					}
				}
				JOINT LeftPantLeg
				{
					OFFSET 0.918482 -16.533964 -2.284700
					CHANNELS 3 Xrotation Yrotation Zrotation
					End Site
					{
						OFFSET 0.350399 24.744368 0.000000
					}
				}
			}
		}
		JOINT RightUpLeg
		{
			OFFSET -8.479700 -4.795502 -0.379100
			CHANNELS 3 Xrotation Yrotation Zrotation
			JOINT RightLeg
			{
				OFFSET -0.023144 -32.555092 0.112900
				CHANNELS 3 Xrotation Yrotation Zrotation
				JOINT RightFoot
				{
					OFFSET 0.023144 -32.638641 -3.012700
					CHANNELS 3 Xrotation Yrotation Zrotation
					JOINT RightToeBase
					{
						OFFSET -0.970200 -13.225400 11.864200
						CHANNELS 3 Xrotation Yrotation Zrotation
						End Site
						{
							OFFSET 0.000000 12.319244 0.000000
						}
					}
					JOINT RFootTongue
					{
						OFFSET -1.142200 -1.059800 6.665200
						CHANNELS 3 Xrotation Yrotation Zrotation
						End Site
						{
							OFFSET 0.000000 12.319243 0.000000
						}
					}
				}
				JOINT RightPantLeg
				{
					OFFSET -0.919482 -16.533978 -2.284800
					CHANNELS 3 Xrotation Yrotation Zrotation
					End Site
					{
						OFFSET -0.350400 24.744419 0.000000
					}
				}
			}
		}
	}
	JOINT Spine
	{
		OFFSET 0.000000 7.722000 1.166200
		CHANNELS 3 Xrotation Yrotation Zrotation
		JOINT Spine1
		{
			OFFSET 0.000000 12.024101 0.248800
			CHANNELS 3 Xrotation Yrotation Zrotation
			JOINT Spine2
			{
				OFFSET 0.000000 11.502998 -0.491200
				CHANNELS 3 Xrotation Yrotation Zrotation
				JOINT Neck
				{
					OFFSET 0.000000 18.430702 -3.123100
					CHANNELS 3 Xrotation Yrotation Zrotation
					JOINT Head
					{
						OFFSET 0.000000 9.051102 1.034000
						CHANNELS 3 Xrotation Yrotation Zrotation
						JOINT HairB
						{
							OFFSET 0.208400 24.786102 24.822300
							CHANNELS 3 Xrotation Yrotation Zrotation
							End Site
							{
								OFFSET 0.000000 32.263779 0.000000
							}
						}
						JOINT HairA
						{
							OFFSET -7.081100 24.428299 23.196600
							CHANNELS 3 Xrotation Yrotation Zrotation
							End Site
							{
								OFFSET 0.000000 32.263779 0.000000
							}
						}
						JOINT Hat
						{
							OFFSET 16.728800 15.048294 -15.439601
							CHANNELS 3 Xrotation Yrotation Zrotation
							End Site
							{
								OFFSET 0.000000 32.263779 0.000000
							}
						}
					}
				}
				JOINT LeftShoulder
				{
					OFFSET 6.197800 13.665199 -4.064700
					CHANNELS 3 Xrotation Yrotation Zrotation
					JOINT LeftArm
					{
						OFFSET 7.778100 -0.187103 -1.709300
						CHANNELS 3 Xrotation Yrotation Zrotation
						JOINT LeftForeArm
						{
							OFFSET 22.049376 0.000000 0.000000
							CHANNELS 3 Xrotation Yrotation Zrotation
							JOINT LeftHand
							{
								OFFSET 23.009392 0.000000 0.000000
								CHANNELS 3 Xrotation Yrotation Zrotation
								JOINT LeftHandThumb1
								{
									OFFSET 3.507191 -2.063065 3.133727
									CHANNELS 3 Xrotation Yrotation Zrotation
									JOINT LeftHandThumb2
									{
										OFFSET 3.101337 -1.790558 1.790558
										CHANNELS 3 Xrotation Yrotation Zrotation
										JOINT LeftHandThumb3
										{
											OFFSET 3.058640 -1.765907 1.765906
											CHANNELS 3 Xrotation Yrotation Zrotation
											End Site
											{
												OFFSET -0.415260 3.926476 -0.049563
											}
										}
									}
								}
								JOINT LeftHandIndex1
								{
									OFFSET 11.334419 -0.901459 3.706815
									CHANNELS 3 Xrotation Yrotation Zrotation
									JOINT LeftHandIndex2
									{
										OFFSET 3.283112 0.000000 0.000000
										CHANNELS 3 Xrotation Yrotation Zrotation
										JOINT LeftHandIndex3
										{
											OFFSET 3.323853 0.000000 0.000000
											CHANNELS 3 Xrotation Yrotation Zrotation
											End Site
											{
												OFFSET -1.135597 3.097809 0.402452
											}
										}
									}
								}
								JOINT LeftHandMiddle1
								{
									OFFSET 11.335861 0.000000 0.000000
									CHANNELS 3 Xrotation Yrotation Zrotation
									JOINT LeftHandMiddle2
									{
										OFFSET 3.410492 0.000000 0.000000
										CHANNELS 3 Xrotation Yrotation Zrotation
										JOINT LeftHandMiddle3
										{
											OFFSET 3.312172 0.000000 0.000000
											CHANNELS 3 Xrotation Yrotation Zrotation
											End Site
											{
												OFFSET -1.150200 3.080154 0.400270
											}
										}
									}
								}
								JOINT LeftHandRing1
								{
									OFFSET 11.514786 -0.013176 -3.003090
									CHANNELS 3 Xrotation Yrotation Zrotation
									JOINT LeftHandRing2
									{
										OFFSET 3.053307 0.000000 0.000000
										CHANNELS 3 Xrotation Yrotation Zrotation
										JOINT LeftHandRing3
										{
											OFFSET 3.295807 0.000000 0.000000
											CHANNELS 3 Xrotation Yrotation Zrotation
											End Site
											{
												OFFSET -1.281006 3.013344 0.375733
											}
										}
									}
								}
								JOINT LeftHandPinky1
								{
									OFFSET 10.518692 -0.960396 -5.730441
									CHANNELS 3 Xrotation Yrotation Zrotation
									JOINT LeftHandPinky2
									{
										OFFSET 2.861649 0.000000 0.000000
										CHANNELS 3 Xrotation Yrotation Zrotation
										JOINT LeftHandPinky3
										{
											OFFSET 2.863380 0.000000 0.000000
											CHANNELS 3 Xrotation Yrotation Zrotation
											End Site
											{
												OFFSET -0.843597 2.711159 0.369971
											}
										}
									}
								}
							}
							JOINT LSleeve
							{
								OFFSET 6.676277 -0.344902 -1.011730
								CHANNELS 3 Xrotation Yrotation Zrotation
								End Site
								{
									OFFSET 0.000000 14.885353 0.000000
								}
							}
						}
					}
				}
				JOINT RightShoulder
				{
					OFFSET -6.197800 13.665199 -4.064700
					CHANNELS 3 Xrotation Yrotation Zrotation
					JOINT RightArm
					{
						OFFSET -7.778100 -0.187103 -1.709300
						CHANNELS 3 Xrotation Yrotation Zrotation
						JOINT RightForeArm
						{
							OFFSET -22.049376 0.000000 0.000000
							CHANNELS 3 Xrotation Yrotation Zrotation
							JOINT RightHand
							{
								OFFSET -23.009392 0.000000 0.000000
								CHANNELS 3 Xrotation Yrotation Zrotation
								JOINT RightHandThumb1
								{
									OFFSET -3.507191 -2.063065 3.133727
									CHANNELS 3 Xrotation Yrotation Zrotation
									JOINT RightHandThumb2
									{
										OFFSET -3.101337 -1.790558 1.790558
										CHANNELS 3 Xrotation Yrotation Zrotation
										JOINT RightHandThumb3
										{
											OFFSET -3.058640 -1.765907 1.765906
											CHANNELS 3 Xrotation Yrotation Zrotation
											End Site
											{
												OFFSET 0.415260 3.926476 -0.049563
											}
										}
									}
								}
								JOINT RightHandIndex1
								{
									OFFSET -11.334419 -0.901459 3.706815
									CHANNELS 3 Xrotation Yrotation Zrotation
									JOINT RightHandIndex2
									{
										OFFSET -3.283112 0.000000 0.000000
										CHANNELS 3 Xrotation Yrotation Zrotation
										JOINT RightHandIndex3
										{
											OFFSET -3.323853 0.000000 0.000000
											CHANNELS 3 Xrotation Yrotation Zrotation
											End Site
											{
												OFFSET 1.135597 3.097809 0.402452
											}
										}
									}
								}
								JOINT RightHandMiddle1
								{
									OFFSET -11.335861 0.000000 0.000000
									CHANNELS 3 Xrotation Yrotation Zrotation
									JOINT RightHandMiddle2
									{
										OFFSET -3.410492 0.000000 0.000000
										CHANNELS 3 Xrotation Yrotation Zrotation
										JOINT RightHandMiddle3
										{
											OFFSET -3.312172 0.000000 0.000000
											CHANNELS 3 Xrotation Yrotation Zrotation
											End Site
											{
												OFFSET 1.150200 3.080154 0.400270
											}
										}
									}
								}
								JOINT RightHandRing1
								{
									OFFSET -11.514786 -0.013176 -3.003090
									CHANNELS 3 Xrotation Yrotation Zrotation
									JOINT RightHandRing2
									{
										OFFSET -3.053307 0.000000 0.000000
										CHANNELS 3 Xrotation Yrotation Zrotation
										JOINT RightHandRing3
										{
											OFFSET -3.295807 0.000000 0.000000
											CHANNELS 3 Xrotation Yrotation Zrotation
											End Site
											{
												OFFSET 1.281006 3.013344 0.375733
											}
										}
									}
								}
								JOINT RightHandPinky1
								{
									OFFSET -10.518692 -0.960396 -5.730441
									CHANNELS 3 Xrotation Yrotation Zrotation
									JOINT RightHandPinky2
									{
										OFFSET -2.861649 0.000000 0.000000
										CHANNELS 3 Xrotation Yrotation Zrotation
										JOINT RightHandPinky3
										{
											OFFSET -2.863380 0.000000 0.000000
											CHANNELS 3 Xrotation Yrotation Zrotation
											End Site
											{
												OFFSET 0.843597 2.711159 0.369971
											}
										}
									}
								}
							}
							JOINT RSleeve
							{
								OFFSET -6.676277 -0.344902 -1.011730
								CHANNELS 3 Xrotation Yrotation Zrotation
								End Site
								{
									OFFSET 0.000000 14.885353 0.000000
								}
							}
						}
					}
				}
				JOINT Backpack
				{
					OFFSET 0.000000 -2.471497 36.677502
					CHANNELS 3 Xrotation Yrotation Zrotation
					End Site
					{
						OFFSET 0.000000 20.427315 0.000000
					}
				}
				JOINT Hood
				{
					OFFSET 0.000000 18.754097 -10.431000
					CHANNELS 3 Xrotation Yrotation Zrotation
					JOINT Hood1
					{
						OFFSET 0.000000 -5.011002 -7.685901
						CHANNELS 3 Xrotation Yrotation Zrotation
						End Site
						{
							OFFSET 0.000000 9.175140 0.000000
						}
					}
				}
				JOINT LHoodieString
				{
					OFFSET 5.250500 16.397697 3.089900
					CHANNELS 3 Xrotation Yrotation Zrotation
					JOINT LHoodieString1
					{
						OFFSET 0.257700 -6.364304 3.694600
						CHANNELS 3 Xrotation Yrotation Zrotation
						JOINT LHoodieString2
						{
							OFFSET 0.000000 -9.643799 2.679100
							CHANNELS 3 Xrotation Yrotation Zrotation
							End Site
							{
								OFFSET 0.000000 10.009018 0.000000
							}
						}
					}
				}
				JOINT RHoodieString
				{
					OFFSET -5.250500 16.397697 3.089900
					CHANNELS 3 Xrotation Yrotation Zrotation
					JOINT RHoodieString1
					{
						OFFSET -0.257700 -6.364304 3.694600
						CHANNELS 3 Xrotation Yrotation Zrotation
						JOINT RHoodieString2
						{
							OFFSET 0.000000 -9.643799 2.679100
							CHANNELS 3 Xrotation Yrotation Zrotation
							End Site
							{
								OFFSET 0.000000 10.009018 0.000000
							}
						}
					}
				}
			}
			JOINT LBackpack_Strap
			{
				OFFSET 15.223200 -7.719803 -6.610900
				CHANNELS 3 Xrotation Yrotation Zrotation
				End Site
				{
					OFFSET 0.000000 16.040596 0.000000
				}
			}
			JOINT RBackpack_Strap
			{
				OFFSET -15.223000 -7.719803 -6.610900
				CHANNELS 3 Xrotation Yrotation Zrotation
				End Site
				{
					OFFSET 0.000000 16.040596 0.000000
				}
			}
		}
	}
	JOINT BoyFacialAnim_Joint
	{
		OFFSET 1.000000 -82.208099 -1.550900
		CHANNELS 3 Xrotation Yrotation Zrotation
		End Site
		{
			OFFSET 0.000000 30.012791 0.000000
		}
	}
}
MOTION
Frames: 4
Frame Time: 0.033333
-50.617744 66.770508 -4.833622 54.220009 -73.491169 50.467595 -0.000000 -0.000001 -0.000000 -17.899149 6.457710 16.462767 72.810561 1.933756 -1.274760 25.313825 12.288793 -10.291219 -0.000000 -0.000001 0.000001 -0.000000 -0.000001 0.000001 0.000003 0.000001 -0.000001 -44.990951 -9.114743 -2.644752 75.312248 3.604888 2.450311 -44.493690 -22.708123 -4.729296 0.000000 0.000002 0.000000 0.000000 0.000002 0.000000 -0.000002 -0.000000 -0.000000 7.228206 -1.934457 2.576356 14.438982 -3.459672 3.180175 14.438987 -3.459682 3.180180 -23.794789 -3.531061 3.287922 -21.155256 -1.777968 0.236383 0.000000 0.000001 -0.000000 0.000000 0.000001 -0.000000 0.000000 0.000001 -0.000000 0.525855 -2.419214 -2.832450 -42.647599 -48.423439 -73.605069 0.186175 -35.638336 0.108386 38.059163 -27.210581 4.645869 42.157372 4.204702 -0.234267 -0.289792 8.928064 -6.216397 0.000002 -0.000002 -0.000001 8.364397 14.112605 -65.413944 1.804248 -4.086627 -119.993119 0.000002 0.000001 -0.000002 -0.160322 8.979063 -66.827028 -4.676087 -2.348955 -121.725692 0.000000 -0.000001 -0.000002 -5.336387 -1.593318 -69.607489 -10.569618 2.697374 -108.547716 -0.000003 0.000003 -0.000003 -12.549739 -0.923862 -62.681069 -11.976388 -0.948798 -109.401558 0.000001 -0.000001 -0.000004 0.000000 0.000000 -0.000001 -0.522342 15.534466 19.972658 13.869947 10.056977 30.937168 0.062787 70.616711 -0.059051 4.609011 -2.899853 -43.522143 42.153998 -4.206675 0.235970 -0.289873 -8.928390 6.215870 0.000001 0.000002 0.000002 9.128264 -12.650006 66.647989 -0.555554 5.588454 118.999627 0.000001 0.000001 0.000005 0.129290 -8.309468 66.870564 -5.787773 2.968319 121.743450 0.000001 -0.000000 -0.000002 -6.024590 -0.258348 69.615487 -7.963975 -4.569979 108.587693 -0.000001 0.000001 0.000002 -14.471976 -2.795422 62.649657 -6.398532 -2.999745 109.426474 0.000003 -0.000004 -0.000002 -0.000001 -0.000002 0.000001 -0.000002 0.000000 -0.000000 -0.000002 0.000000 -0.000000 -0.000002 0.000000 -0.000000 -0.000002 0.000000 -0.000000 -0.000002 0.000000 -0.000000 -0.000004 0.000000 -0.000000 -0.000002 0.000000 -0.000000 -0.000002 0.000000 -0.000000 -0.000004 0.000000 -0.000000 -0.000000 0.000000 -0.000000 -0.000000 0.000000 -0.000000 -0.000000 -0.000001 -0.000000 
-56.351463 66.445786 -4.756484 87.822511 -76.021023 83.635837 -0.000001 -0.000000 -0.000000 -34.080622 5.484272 16.963892 89.267041 1.489943 -1.482791 19.099900 16.681851 -6.655902 0.000000 -0.000001 -0.000000 0.000000 -0.000001 -0.000000 -0.000000 0.000002 0.000001 -41.090165 -2.110945 3.651538 75.058957 -0.642462 2.044165 -45.158059 -22.124487 -1.114227 0.000000 0.000002 -0.000000 0.000000 0.000002 -0.000000 -0.000001 -0.000000 -0.000000 7.629769 -0.714590 2.058764 15.239470 -1.249035 1.720665 15.239472 -1.249049 1.720665 -29.303154 -2.207700 2.380479 -18.822429 -1.137416 1.307777 -0.000000 0.000001 0.000000 -0.000000 0.000001 0.000000 -0.000000 0.000001 0.000000 0.563581 -2.894821 -4.591601 -19.875284 -33.151194 -63.911029 0.075702 -40.604419 0.048876 35.544076 -11.476371 16.582466 42.157376 4.204718 -0.234272 -0.289776 8.928059 -6.216404 -0.000001 -0.000001 0.000002 8.364389 14.112613 -65.413931 1.804245 -4.086620 -119.993146 -0.000002 -0.000002 -0.000005 -0.160322 8.979067 -66.827028 -4.676083 -2.348961 -121.725664 0.000006 -0.000000 0.000000 -5.336395 -1.593308 -69.607462 -10.569607 2.697364 -108.547716 0.000000 -0.000001 -0.000001 -12.549740 -0.923857 -62.681056 -11.976384 -0.948798 -109.401592 0.000002 0.000001 -0.000000 0.000002 0.000001 -0.000000 -0.886217 17.752362 21.407068 -1.629364 30.683740 28.705311 0.064471 60.201431 -0.055625 12.565313 3.492330 -47.451093 42.154012 -4.206672 0.235964 -0.289871 -8.928378 6.215885 0.000000 0.000001 -0.000003 9.128262 -12.650007 66.647989 -0.555551 5.588456 118.999627 -0.000003 0.000001 -0.000001 0.129294 -8.309472 66.870571 -5.787769 2.968305 121.743450 -0.000001 -0.000002 0.000001 -6.024591 -0.258353 69.615487 -7.963973 -4.569966 108.587679 -0.000002 0.000003 0.000001 -14.471981 -2.795425 62.649664 -6.398535 -2.999751 109.426522 -0.000001 -0.000001 0.000004 0.000003 0.000000 -0.000001 -0.000001 0.000000 -0.000000 -0.000001 0.000000 -0.000000 -0.000001 0.000000 -0.000000 -0.000001 0.000000 -0.000000 -0.000001 0.000000 0.000000 0.000001 0.000000 -0.000000 -0.000001 0.000000 -0.000000 -0.000001 0.000000 0.000000 0.000001 0.000000 -0.000000 -0.000000 0.000000 -0.000000 -0.000000 0.000000 -0.000000 -0.000001 -0.000000 -0.000000 
-62.705658 65.972481 -4.560102 115.399967 -71.764388 112.976281 -0.000002 0.000001 0.000000 -50.018445 3.536675 15.488297 100.318123 0.879710 -1.588043 3.971499 16.568022 1.516724 -0.000001 0.000000 -0.000001 -0.000001 0.000000 -0.000001 -0.000000 0.000001 -0.000000 -39.329390 6.667952 6.426843 74.998305 -3.161550 1.888161 -46.355883 -22.365770 1.184029 0.000000 0.000001 0.000000 0.000000 0.000001 0.000000 -0.000003 -0.000000 0.000000 7.564510 0.707524 0.796146 15.155725 1.213078 -0.491313 15.155722 1.213094 -0.491333 -32.792455 -0.882991 -0.833605 -17.853783 -2.805601 4.715572 0.000000 0.000000 0.000000 0.000000 0.000000 0.000000 0.000000 0.000000 0.000000 0.553415 -2.456797 -5.539511 -3.462106 -19.076128 -59.079463 0.057365 -48.233788 0.042688 25.920855 -2.222487 16.782074 42.157369 4.204710 -0.234253 -0.289781 8.928060 -6.216403 0.000000 0.000001 0.000003 8.364399 14.112601 -65.413924 1.804247 -4.086616 -119.993105 -0.000000 0.000000 -0.000002 -0.160319 8.979053 -66.827015 -4.676076 -2.348962 -121.725678 0.000006 0.000003 0.000002 -5.336385 -1.593318 -69.607469 -10.569612 2.697372 -108.547716 -0.000002 -0.000001 -0.000004 -12.549731 -0.923875 -62.681056 -11.976379 -0.948802 -109.401592 -0.000001 0.000001 0.000002 0.000001 -0.000000 0.000000 -0.226104 16.950288 16.486641 -32.126150 47.928841 47.377525 0.117951 57.615829 -0.099501 17.318788 1.476127 -42.020762 42.154019 -4.206668 0.235966 -0.289869 -8.928385 6.215889 0.000001 0.000001 0.000000 9.128263 -12.650009 66.647989 -0.555538 5.588447 118.999640 -0.000002 0.000000 0.000000 0.129286 -8.309472 66.870564 -5.787794 2.968317 121.743477 -0.000000 0.000001 -0.000000 -6.024595 -0.258352 69.615487 -7.963981 -4.569966 108.587666 0.000003 0.000001 0.000002 -14.471976 -2.795429 62.649664 -6.398531 -2.999747 109.426515 0.000004 -0.000001 0.000000 0.000003 0.000000 -0.000004 0.000000 -0.000000 0.000000 0.000000 -0.000000 0.000000 0.000000 -0.000000 0.000000 0.000000 -0.000000 0.000000 0.000000 -0.000000 0.000000 0.000002 0.000000 -0.000000 0.000000 -0.000000 0.000000 0.000000 -0.000000 0.000000 0.000002 0.000000 -0.000000 0.000002 0.000000 0.000000 0.000002 0.000000 0.000000 -0.000002 0.000001 0.000000 
-69.553871 66.112488 -4.679240 121.756988 -67.936080 123.054956 0.000000 0.000000 -0.000000 -64.300951 -1.347760 11.915331 104.138829 1.113083 -1.592580 -11.980078 12.982945 2.942931 0.000000 -0.000001 -0.000001 0.000000 -0.000001 -0.000001 -0.000003 -0.000001 -0.000001 -34.136753 11.410653 2.812132 72.179814 -2.081127 2.034489 -47.628781 -22.708248 0.943262 -0.000000 0.000000 0.000000 -0.000000 0.000000 0.000000 0.000001 -0.000000 0.000000 7.485438 1.992452 -0.930343 15.061266 3.560727 -3.115252 15.061277 3.560726 -3.115240 -33.453717 -2.952506 -1.565512 -18.267187 -4.948810 4.859690 -0.000000 0.000000 0.000000 -0.000000 0.000000 0.000000 -0.000000 0.000000 0.000000 0.498649 -1.388543 -4.743819 11.756774 -14.656174 -52.395095 0.080228 -50.195463 0.061472 15.210001 -7.625568 11.827898 42.157376 4.204705 -0.234264 -0.289783 8.928061 -6.216421 -0.000000 -0.000000 0.000000 8.364405 14.112601 -65.413937 1.804258 -4.086617 -119.993119 0.000001 0.000001 -0.000003 -0.160317 8.979064 -66.827049 -4.676077 -2.348951 -121.725664 0.000003 -0.000001 -0.000000 -5.336376 -1.593312 -69.607482 -10.569619 2.697382 -108.547716 -0.000002 0.000002 -0.000005 -12.549716 -0.923850 -62.681076 -11.976382 -0.948816 -109.401606 0.000001 0.000001 0.000002 -0.000001 0.000002 -0.000000 0.594560 13.148099 9.430308 -67.067588 48.994388 74.205402 0.190067 65.130929 -0.172202 20.503504 -8.482899 -33.709330 42.153988 -4.206672 0.235971 -0.289867 -8.928388 6.215890 0.000002 -0.000000 0.000000 9.128255 -12.650008 66.647989 -0.555548 5.588445 118.999613 -0.000003 0.000001 0.000002 0.129285 -8.309472 66.870571 -5.787753 2.968304 121.743423 0.000002 0.000001 -0.000002 -6.024596 -0.258353 69.615487 -7.963975 -4.569964 108.587672 0.000000 0.000001 0.000002 -14.471977 -2.795426 62.649664 -6.398531 -2.999736 109.426515 -0.000000 0.000000 0.000000 -0.000001 -0.000001 -0.000004 -0.000001 0.000000 0.000000 -0.000001 0.000000 0.000000 -0.000001 0.000000 0.000000 -0.000001 0.000000 0.000000 -0.000001 0.000000 0.000000 0.000000 -0.000000 -0.000000 -0.000001 0.000000 0.000000 -0.000001 0.000000 0.000000 0.000000 -0.000000 -0.000000 0.000001 0.000000 -0.000000 0.000001 0.000000 -0.000000 0.000000 0.000000 -0.000000 
